<mxfile host="app.diagrams.net" modified="2023-10-25T09:37:35.562Z" agent="Mozilla/5.0 (Windows NT 10.0; Win64; x64) AppleWebKit/537.36 (KHTML, like Gecko) Chrome/118.0.0.0 Safari/537.36 Edg/118.0.2088.61" etag="25FZzu_SK6_LsqtntwW7" version="22.0.8" type="device">
  <diagram name="Страница — 1" id="Hrbx1KmNpEyVZf2BnhBt">
    <mxGraphModel dx="2213" dy="751" grid="1" gridSize="10" guides="1" tooltips="1" connect="1" arrows="1" fold="1" page="1" pageScale="1" pageWidth="827" pageHeight="1169" math="0" shadow="0">
      <root>
        <mxCell id="0" />
        <mxCell id="1" parent="0" />
        <mxCell id="n9FYxXZpF2rJdnw8TL6y-3" value="" style="edgeStyle=orthogonalEdgeStyle;rounded=0;orthogonalLoop=1;jettySize=auto;html=1;" edge="1" parent="1" source="n9FYxXZpF2rJdnw8TL6y-1" target="n9FYxXZpF2rJdnw8TL6y-2">
          <mxGeometry relative="1" as="geometry" />
        </mxCell>
        <mxCell id="n9FYxXZpF2rJdnw8TL6y-1" value="&lt;br&gt;&lt;br&gt;Открытие&lt;br&gt;страницы" style="ellipse;whiteSpace=wrap;html=1;aspect=fixed;" vertex="1" parent="1">
          <mxGeometry x="200" y="40" width="80" height="80" as="geometry" />
        </mxCell>
        <mxCell id="n9FYxXZpF2rJdnw8TL6y-2" value="&lt;br&gt;&lt;br&gt;отображение&lt;br&gt;страницы" style="ellipse;whiteSpace=wrap;html=1;aspect=fixed;" vertex="1" parent="1">
          <mxGeometry x="200" y="160" width="80" height="80" as="geometry" />
        </mxCell>
        <mxCell id="n9FYxXZpF2rJdnw8TL6y-4" value="Ввод значений&lt;br&gt;в поле&lt;br&gt;ввода" style="ellipse;whiteSpace=wrap;html=1;aspect=fixed;" vertex="1" parent="1">
          <mxGeometry x="40" y="160" width="80" height="80" as="geometry" />
        </mxCell>
        <mxCell id="n9FYxXZpF2rJdnw8TL6y-6" value="" style="triangle;whiteSpace=wrap;html=1;rotation=90;" vertex="1" parent="1">
          <mxGeometry x="225" y="40" width="30" height="40" as="geometry" />
        </mxCell>
        <mxCell id="n9FYxXZpF2rJdnw8TL6y-7" value="" style="ellipse;whiteSpace=wrap;html=1;aspect=fixed;fillColor=#000000;" vertex="1" parent="1">
          <mxGeometry x="225" y="170" width="30" height="30" as="geometry" />
        </mxCell>
        <mxCell id="n9FYxXZpF2rJdnw8TL6y-10" value="" style="endArrow=none;html=1;rounded=0;strokeWidth=3;" edge="1" parent="1">
          <mxGeometry width="50" height="50" relative="1" as="geometry">
            <mxPoint x="120" y="320" as="sourcePoint" />
            <mxPoint x="230" y="320" as="targetPoint" />
          </mxGeometry>
        </mxCell>
        <mxCell id="n9FYxXZpF2rJdnw8TL6y-12" value="" style="endArrow=classic;html=1;rounded=0;" edge="1" parent="1">
          <mxGeometry width="50" height="50" relative="1" as="geometry">
            <mxPoint x="100" y="240" as="sourcePoint" />
            <mxPoint x="140" y="320" as="targetPoint" />
          </mxGeometry>
        </mxCell>
        <mxCell id="n9FYxXZpF2rJdnw8TL6y-13" value="" style="endArrow=classic;html=1;rounded=0;" edge="1" parent="1">
          <mxGeometry width="50" height="50" relative="1" as="geometry">
            <mxPoint x="240" y="240" as="sourcePoint" />
            <mxPoint x="150" y="320" as="targetPoint" />
          </mxGeometry>
        </mxCell>
        <mxCell id="n9FYxXZpF2rJdnw8TL6y-23" value="" style="edgeStyle=orthogonalEdgeStyle;rounded=0;orthogonalLoop=1;jettySize=auto;html=1;" edge="1" parent="1" source="n9FYxXZpF2rJdnw8TL6y-17" target="n9FYxXZpF2rJdnw8TL6y-22">
          <mxGeometry relative="1" as="geometry" />
        </mxCell>
        <mxCell id="n9FYxXZpF2rJdnw8TL6y-32" value="да" style="edgeLabel;html=1;align=center;verticalAlign=middle;resizable=0;points=[];" vertex="1" connectable="0" parent="n9FYxXZpF2rJdnw8TL6y-23">
          <mxGeometry x="-0.2" y="-1" relative="1" as="geometry">
            <mxPoint as="offset" />
          </mxGeometry>
        </mxCell>
        <mxCell id="n9FYxXZpF2rJdnw8TL6y-25" value="" style="edgeStyle=orthogonalEdgeStyle;rounded=0;orthogonalLoop=1;jettySize=auto;html=1;" edge="1" parent="1" source="n9FYxXZpF2rJdnw8TL6y-17" target="n9FYxXZpF2rJdnw8TL6y-24">
          <mxGeometry relative="1" as="geometry" />
        </mxCell>
        <mxCell id="n9FYxXZpF2rJdnw8TL6y-31" value="нет" style="edgeLabel;html=1;align=center;verticalAlign=middle;resizable=0;points=[];" vertex="1" connectable="0" parent="n9FYxXZpF2rJdnw8TL6y-25">
          <mxGeometry x="0.06" y="1" relative="1" as="geometry">
            <mxPoint as="offset" />
          </mxGeometry>
        </mxCell>
        <mxCell id="n9FYxXZpF2rJdnw8TL6y-17" value="&lt;br&gt;&lt;br&gt;Проверка&lt;br&gt;пустое ли поле" style="ellipse;whiteSpace=wrap;html=1;aspect=fixed;" vertex="1" parent="1">
          <mxGeometry x="110" y="400" width="80" height="80" as="geometry" />
        </mxCell>
        <mxCell id="n9FYxXZpF2rJdnw8TL6y-18" value="" style="endArrow=classic;html=1;rounded=0;entryX=0.5;entryY=0;entryDx=0;entryDy=0;" edge="1" parent="1" target="n9FYxXZpF2rJdnw8TL6y-17">
          <mxGeometry width="50" height="50" relative="1" as="geometry">
            <mxPoint x="150" y="320" as="sourcePoint" />
            <mxPoint x="200" y="270" as="targetPoint" />
          </mxGeometry>
        </mxCell>
        <mxCell id="n9FYxXZpF2rJdnw8TL6y-19" value="Нажатие&lt;br&gt;Enter" style="ellipse;whiteSpace=wrap;html=1;aspect=fixed;" vertex="1" parent="1">
          <mxGeometry x="350" y="160" width="80" height="80" as="geometry" />
        </mxCell>
        <mxCell id="n9FYxXZpF2rJdnw8TL6y-20" value="" style="endArrow=classic;html=1;rounded=0;" edge="1" parent="1">
          <mxGeometry width="50" height="50" relative="1" as="geometry">
            <mxPoint x="390" y="240" as="sourcePoint" />
            <mxPoint x="200" y="320" as="targetPoint" />
          </mxGeometry>
        </mxCell>
        <mxCell id="n9FYxXZpF2rJdnw8TL6y-21" value="" style="rhombus;whiteSpace=wrap;html=1;fillColor=#030303;" vertex="1" parent="1">
          <mxGeometry x="135" y="400" width="30" height="30" as="geometry" />
        </mxCell>
        <mxCell id="n9FYxXZpF2rJdnw8TL6y-22" value="Заполнение поля нулем&amp;nbsp;&lt;br&gt;или прочерком" style="ellipse;whiteSpace=wrap;html=1;aspect=fixed;" vertex="1" parent="1">
          <mxGeometry x="110" y="520" width="80" height="80" as="geometry" />
        </mxCell>
        <mxCell id="n9FYxXZpF2rJdnw8TL6y-24" value="Ввод введенных&lt;br&gt;значений" style="ellipse;whiteSpace=wrap;html=1;aspect=fixed;" vertex="1" parent="1">
          <mxGeometry x="290" y="400" width="80" height="80" as="geometry" />
        </mxCell>
        <mxCell id="n9FYxXZpF2rJdnw8TL6y-29" value="" style="curved=1;endArrow=classic;html=1;rounded=0;exitX=1;exitY=0.5;exitDx=0;exitDy=0;entryX=1;entryY=0.5;entryDx=0;entryDy=0;" edge="1" parent="1" source="n9FYxXZpF2rJdnw8TL6y-24" target="n9FYxXZpF2rJdnw8TL6y-2">
          <mxGeometry width="50" height="50" relative="1" as="geometry">
            <mxPoint x="230" y="250" as="sourcePoint" />
            <mxPoint x="380" y="130" as="targetPoint" />
            <Array as="points">
              <mxPoint x="540" y="360" />
              <mxPoint x="530" y="200" />
              <mxPoint x="470" y="110" />
              <mxPoint x="390" y="120" />
            </Array>
          </mxGeometry>
        </mxCell>
        <mxCell id="n9FYxXZpF2rJdnw8TL6y-33" value="" style="curved=1;endArrow=classic;html=1;rounded=0;exitX=0;exitY=0.5;exitDx=0;exitDy=0;" edge="1" parent="1" source="n9FYxXZpF2rJdnw8TL6y-22">
          <mxGeometry width="50" height="50" relative="1" as="geometry">
            <mxPoint x="150" y="250" as="sourcePoint" />
            <mxPoint x="200" y="200" as="targetPoint" />
            <Array as="points">
              <mxPoint x="-30" y="370" />
              <mxPoint x="20" y="290" />
              <mxPoint x="10" y="240" />
              <mxPoint x="10" y="110" />
              <mxPoint x="150" y="150" />
            </Array>
          </mxGeometry>
        </mxCell>
      </root>
    </mxGraphModel>
  </diagram>
</mxfile>
